<svg width="367" height="649" viewBox="0 0 367 649" fill="none" xmlns="http://www.w3.org/2000/svg">
<path fill-rule="evenodd" clip-rule="evenodd" d="M366.527 498.442L347.557 648.625L345.565 648.499L345.716 493.45L307.156 643.645L305.196 643.271L324.632 489.4L267.539 633.557L265.64 632.94L304.207 482.872L229.502 618.679L227.697 617.828L284.934 473.689L193.686 599.168L192.001 598.098L266.841 462.322L160.73 575.342L159.192 574.07L250.296 448.579L130.795 547.517L129.429 546.062L235.708 433.024L104.68 516.172L103.507 514.556L223.149 415.779L82.7052 481.783L81.7448 480.033L212.763 397.043L65.1933 444.987L64.459 443.131L204.921 377.119L52.4633 406.104L51.9684 404.17L199.539 356.377L44.6786 366.088L44.4293 364.107L196.857 335.129L42 325.418V323.422L196.857 313.712L44.4293 284.733L44.6796 282.753L199.539 292.615L51.9675 244.67L52.4642 242.737L204.894 271.868L64.459 205.869L65.1933 204.013L212.763 251.957L81.7448 168.967L82.7052 167.217L223.149 233.221L103.507 134.444L104.679 132.828L235.708 215.825L129.429 102.939L130.795 101.483L250.296 200.269L159.192 74.931L160.73 73.6585L266.851 186.689L192.001 50.7426L193.686 49.6722L284.934 175.152L227.697 31.0123L229.502 30.1617L304.207 166.12L265.64 15.9001L267.539 15.2832L324.63 159.437L305.196 5.72907L307.156 5.35473L345.716 155.398L345.565 0.500994L347.557 0.374573L366.527 150.41V158.382L346.565 0.500014L346.724 163.337L306.188 5.60363L326.615 167.165L266.609 15.6514L307.145 173.545L228.626 30.6433L288.792 182.157L192.877 50.2603L271.556 193.162L160.001 74.343L255.757 206.08L130.158 102.253L241.872 220.913L104.144 133.673L229.903 237.499L82.2798 168.122L220.008 255.362L64.8843 204.964L212.507 274.341L52.2766 243.719L207.4 294.118L44.6161 283.751L204.847 314.213L42.0626 324.42L204.847 334.628L44.6161 365.09L207.4 354.883L52.2766 405.121L212.507 374.659L64.8843 444.036L220.008 393.638L82.2798 480.878L229.903 411.501L104.144 515.328L241.872 427.928L130.158 546.747L255.757 442.76L160.001 574.657L271.556 455.838L192.877 598.58L288.792 466.684L228.626 618.197L307.145 475.455L266.609 633.189L326.615 481.676L306.188 643.396L346.724 485.503L346.565 648.5L366.527 490.462V498.442Z" fill="black"/>
<path d="M95.7147 470.596L141.422 495.5L95.7147 520.604L70.7109 566.21L45.7072 520.604L0.000261762 495.5L45.7072 470.596L70.7109 424.789L95.7147 470.596Z" fill="#B9FF66"/>
<path d="M217.102 244.065L298.777 288.566L217.102 333.425L172.422 414.922L127.742 333.425L46.0666 288.566L127.742 244.065L172.422 162.211L217.102 244.065Z" fill="#191A23"/>
</svg>
